<?xml version="1.0" encoding="UTF-8" standalone="no"?>
<!DOCTYPE svg PUBLIC "-//W3C//DTD SVG 1.1//EN" "http://www.w3.org/Graphics/SVG/1.1/DTD/svg11.dtd">
<svg width="100%" height="100%" viewBox="0 0 358 112" version="1.1" xmlns="http://www.w3.org/2000/svg" xmlns:xlink="http://www.w3.org/1999/xlink" xml:space="preserve" xmlns:serif="http://www.serif.com/" style="fill-rule:evenodd;clip-rule:evenodd;stroke-linejoin:round;stroke-miterlimit:2;">
    <g id="MAPF1_x5F_M_x5F_n_x5F_4C_1_" transform="matrix(1,0,0,1,-82.5,-54.16)">
        <g transform="matrix(1.73959,0,0,1.73959,138.585,109.886)">
            <g transform="matrix(1,0,0,1,-32,-32)">
                <g>
                    <path id="outer_24_" d="M63.3,32C63.3,49.3 49.3,63.3 32,63.3C14.7,63.3 0.7,49.3 0.7,32C0.7,14.7 14.7,0.7 32,0.7C49.3,0.7 63.3,14.7 63.3,32ZM32,2.6C15.7,2.6 2.6,15.7 2.6,32C2.6,48.3 15.8,61.4 32,61.4C48.3,61.4 61.4,48.2 61.4,32C61.4,15.7 48.3,2.6 32,2.6Z" style="fill:url(#_Linear1);fill-rule:nonzero;"/>
                    <path d="M32,2.6C15.7,2.6 2.6,15.7 2.6,32C2.6,48.3 15.8,61.4 32,61.4C48.3,61.4 61.4,48.2 61.4,32C61.4,15.7 48.3,2.6 32,2.6ZM32,59.5C16.8,59.5 4.5,47.2 4.5,32C4.5,16.8 16.8,4.5 32,4.5C47.2,4.5 59.5,16.8 59.5,32C59.5,47.2 47.2,59.5 32,59.5Z" style="fill:url(#_Linear2);fill-rule:nonzero;"/>
                    <path d="M32,63.3C49.3,63.3 63.3,49.3 63.3,32C63.3,14.7 49.3,0.7 32,0.7C14.7,0.7 0.7,14.7 0.7,32C0.7,49.3 14.7,63.3 32,63.3ZM32,0C49.6,0 64,14.4 64,32C64,49.6 49.6,64 32,64C14.4,64 0,49.6 0,32C0,14.4 14.4,0 32,0Z" style="fill:url(#_Linear3);fill-rule:nonzero;"/>
                    <path d="M2.2,32.1C2.2,15.7 15.5,2.2 32,2.2C48.5,2.2 61.8,15.6 61.8,32.1C61.8,48.5 48.5,61.8 32,61.8C15.5,61.8 2.2,48.5 2.2,32.1ZM11.5,11.5C6.2,16.8 2.9,24.1 2.9,32.1C2.9,40.1 6.2,47.4 11.4,52.6C16.7,57.8 24,61.1 32,61.1C40,61.1 47.3,57.9 52.5,52.6C57.8,47.4 61,40.1 61,32.1C61,24.1 57.7,16.8 52.5,11.5C47.3,6.2 40,2.9 32,2.9C24,2.9 16.7,6.2 11.5,11.5Z" style="fill:white;fill-rule:nonzero;"/>
                    <path d="M32,59.6C24.6,59.6 17.7,56.7 12.5,51.5C7.3,46.3 4.4,39.4 4.4,32C4.4,24.6 7.3,17.7 12.5,12.5C17.7,7.3 24.6,4.4 32,4.4C39.4,4.4 46.3,7.3 51.5,12.5C56.7,17.7 59.6,24.6 59.6,32C59.6,39.4 56.7,46.3 51.5,51.5C46.3,56.7 39.4,59.6 32,59.6ZM32,58.8C39.1,58.8 45.9,56 50.9,51C56,45.9 58.7,39.2 58.7,32.1C58.7,25 55.9,18.2 50.9,13.2C45.8,8.1 39.1,5.4 32,5.4C24.9,5.4 18.1,8.2 13.1,13.2C8,18.1 5.2,24.9 5.2,32C5.2,39.1 8,45.9 13,50.9C18.1,56 24.9,58.8 32,58.8Z" style="fill:url(#_Linear4);fill-rule:nonzero;"/>
                    <path d="M56.3,45C55.8,44.6 36.5,29.3 36.5,29.3L32,3.6C31.7,3.7 31.3,4 31.1,4.4L27.9,29.4L8,44.7C8,44.7 7.6,45.2 7.4,45.5C7.3,45.7 7.3,46 7.3,46.3L31.9,36.2L56.5,46.3C56.7,45.8 56.5,45.3 56.3,45Z" style="fill:white;fill-rule:nonzero;"/>
                    <path d="M32.2,32.8L32,37.4L54.6,46.5C55.4,46.9 56,46.7 56.6,46.3L32.5,32.7C32.4,32.6 32.2,32.7 32.2,32.8Z" style="fill:rgb(86,95,100);fill-rule:nonzero;"/>
                    <path d="M32.2,32.8C32.2,32.8 33.5,35.1 35,36.7C37.1,39 39.9,40.6 39.9,40.6L54.6,46.5C55.4,46.9 56,46.7 56.6,46.3L32.5,32.7C32.4,32.6 32.2,32.7 32.2,32.8Z" style="fill:url(#_Linear5);fill-rule:nonzero;"/>
                    <path d="M56.5,45.4C56.5,45.3 56.4,45.2 56.3,45L35.7,29.9L32.9,31.7C32.9,31.7 33.1,31.8 33.2,31.7C33.5,31.6 34.1,31.5 34.7,31.7C35.2,31.9 56.5,45.5 56.5,45.5L56.5,45.4Z" style="fill:rgb(164,170,174);fill-opacity:0.6;fill-rule:nonzero;"/>
                    <path d="M55.8,44.5L36.6,29.3L35.7,29.9L56.3,45.1C56.2,44.9 56,44.7 55.8,44.5Z" style="fill:rgb(51,62,70);fill-rule:nonzero;"/>
                    <path d="M32.5,31.3L32.4,31.4C32.4,31.4 32.4,31.6 32.6,31.5C32.7,31.4 35.6,29.9 36.6,29.3L33.1,5.3C33,4.4 32.6,4 31.9,3.7L32.3,31.5L32.5,31.3Z" style="fill:rgb(86,95,100);fill-rule:nonzero;"/>
                    <path d="M30.8,5.3L30.8,6.6L28.6,28.7C28.6,29 28.7,29.3 29,29.5L30.3,30.5L31.2,6.1L31.3,4.2C31,4.4 30.9,4.8 30.8,5.3Z" style="fill:rgb(164,170,174);fill-opacity:0.6;fill-rule:nonzero;"/>
                    <path d="M29.6,30.9L28.4,29.9L8.1,44.6C8.1,44.6 7.5,45 7.4,45.4L8.1,45L29.4,31.6C29.8,31.4 29.9,31.2 29.6,30.9Z" style="fill:rgb(164,170,174);fill-opacity:0.6;fill-rule:nonzero;"/>
                    <path d="M31.7,32.8C31.7,32.7 31.6,32.6 31.5,32.7L7.3,46.4C7.9,46.8 8.5,46.9 9.3,46.6L31.9,37.5L31.7,32.8Z" style="fill:rgb(86,95,100);fill-rule:nonzero;"/>
                    <path d="M32.4,31.4L32.5,31.3L32.4,31.4C32.4,31.4 32.4,31.5 32.5,31.5L32.6,31.5C32.7,31.4 35.6,29.9 36.6,29.3L36.2,26.4L33.1,5.3C33.1,4.9 33,4.6 32.8,4.4C32.8,4.4 34.3,24.6 34.3,26.8C34.3,29.7 32.4,31.4 32.4,31.4Z" style="fill:url(#_Linear6);fill-rule:nonzero;"/>
                    <path d="M31.7,32.8C31.7,32.7 31.6,32.6 31.5,32.7L7.3,46.4C7.9,46.8 8.5,46.9 9.3,46.6L31.9,37.5L31.7,32.8Z" style="fill:url(#_Linear7);fill-rule:nonzero;"/>
                    <path d="M9.3,46.5L31.9,37.4L31.7,33C31.3,34.2 30.6,35.5 28.7,36.5C27.3,37.3 13.9,43.9 9.1,46.2C8.8,46.4 8.4,46.5 8.2,46.6C8.6,46.8 8.9,46.7 9.3,46.5Z" style="fill:url(#_Linear8);fill-rule:nonzero;"/>
                    <path d="M32.5,31.3L32.4,31.4C32.4,31.4 32.4,31.6 32.6,31.5C32.7,31.4 35.6,29.9 36.6,29.3L33.1,5.3C33,4.4 32.6,4 31.9,3.7L32.3,31.5L32.5,31.3Z" style="fill:url(#_Linear9);fill-rule:nonzero;"/>
                    <path d="M32.5,31.3L32.4,31.4C32.4,31.4 32.4,31.6 32.6,31.5C32.7,31.4 35.6,29.9 36.6,29.3L33.1,5.3C33,4.4 32.6,4 31.9,3.7L32.3,31.5L32.5,31.3Z" style="fill:url(#_Linear10);fill-rule:nonzero;"/>
                    <path d="M5.1,44.4C4.4,42.8 0.4,35 4.8,20L3.1,20C2.2,23 1.5,24.8 1.1,27.5C1.1,27.5 0.9,28.5 0.8,29.6C0.7,30.7 0.7,31.3 0.7,32C0.7,38 2.2,41.5 2.2,41.5C3.8,46.5 6.6,51 10.4,54.4C13.7,57.3 18.8,59.5 23,60.3C22.3,60.2 10.3,55.1 5.1,44.4Z" style="fill:url(#_Linear11);fill-rule:nonzero;"/>
                    <path d="M32.4,32.6L31.5,32.6C31.6,32.6 31.7,32.6 31.7,32.7L31.9,37.3L32,37.3L32.2,32.7C32.2,32.6 32.3,32.5 32.4,32.6Z" style="fill:url(#_Linear12);fill-rule:nonzero;"/>
                    <path d="M42,2.3C52.5,6.3 62.4,17.3 62.4,31.2C62.4,48 49,61.7 32,61.7L32,63.3C49,63.3 63.3,49.3 63.3,32C63.3,18.2 54.5,6.6 42,2.3Z" style="fill:url(#_Linear13);fill-rule:nonzero;"/>
                    <path d="M32.3,0.7L32,0.7L32.3,0.7Z" style="fill:url(#_Linear14);fill-rule:nonzero;"/>
                    <path d="M58.8,20.2C51.8,4.1 36,3.2 35.1,3.1L35,3.1C47.1,5.3 54.8,13.2 57.5,21.5L57.5,21.6C58.7,24.8 59.3,28.2 59.4,31.9C59.5,35.4 58.7,39.3 57.2,42.9C57.1,43.4 57,44 56.9,44L58.5,44C63.3,35 61.2,25.9 58.8,20.2Z" style="fill:url(#_Linear15);fill-rule:nonzero;"/>
                    <path d="M2.2,32.1C2.2,15.7 15.5,2.2 32,2.2C48.5,2.2 61.8,15.6 61.8,32.1C61.8,48.5 48.5,61.8 32,61.8C15.5,61.8 2.2,48.5 2.2,32.1ZM11.5,11.5C6.2,16.8 2.9,24.1 2.9,32.1C2.9,40.1 6.2,47.4 11.4,52.6C16.7,57.8 24,61.1 32,61.1C40,61.1 47.3,57.9 52.5,52.6C57.8,47.4 61,40.1 61,32.1C61,24.1 57.7,16.8 52.5,11.5C47.3,6.2 40,2.9 32,2.9C24,2.9 16.7,6.2 11.5,11.5Z" style="fill:rgb(251,251,251);fill-rule:nonzero;"/>
                    <path d="M7.9,44.8L28.3,30.1C29.4,30.7 31.2,31.5 31.4,31.5C31.6,31.6 31.6,31.4 31.6,31.4L29.1,29.3C28.8,29.1 28.7,28.8 28.7,28.5L31.1,4.4C31,4.5 31,4.7 30.9,4.8C30.8,5 30.8,5.1 30.8,5.3L27.3,29.4L8.1,44.5C8,44.6 7.9,44.7 7.9,44.8Z" style="fill:rgb(51,63,71);fill-rule:nonzero;"/>
                </g>
            </g>
        </g>
        <g id="g1440">
            <g id="g1396">
                <path id="path1374" d="M402.56,94.47L438.21,94.47C438.79,94.47 439.27,93.99 439.27,93.41L439.27,84.51C439.27,83.93 438.79,83.45 438.21,83.45L420.69,83.45C420.11,83.45 419.63,83.93 419.63,84.51L419.63,86.12C419.63,86.7 420.11,87.18 420.69,87.18L432.2,87.18C432.39,87.18 432.55,87.34 432.55,87.53L432.55,89.25C432.55,89.44 432.39,89.6 432.2,89.6L409.29,89.6C408.71,89.6 408.23,89.12 408.23,88.54L408.23,81.94C408.23,81.36 408.71,80.88 409.29,80.88L438.22,80.88C438.8,80.88 439.28,80.4 439.28,79.82L439.28,77.4C439.28,76.82 438.8,76.34 438.22,76.34L402.57,76.34C401.99,76.34 401.51,76.82 401.51,77.4L401.51,93.4C401.5,93.99 401.98,94.47 402.56,94.47ZM392.58,94.47L397.18,94.47C397.76,94.47 398.24,93.99 398.24,93.41L398.24,77.41C398.24,76.83 397.76,76.35 397.18,76.35L392.01,76.35C391.8,76.35 391.61,76.4 391.43,76.52L378.82,84.75C378.46,84.98 378.02,84.98 377.66,84.75L365.05,76.52C364.87,76.4 364.69,76.35 364.47,76.35L359.3,76.35C358.72,76.35 358.24,76.83 358.24,77.41L358.24,93.41C358.24,93.99 358.72,94.47 359.3,94.47L363.9,94.47C364.48,94.47 364.96,93.99 364.96,93.41L364.96,83.77C364.96,83.59 365.05,83.43 365.21,83.34C365.37,83.25 365.56,83.26 365.71,83.35L375.47,89.47C375.65,89.58 375.82,89.63 376.03,89.63L380.41,89.63C380.62,89.63 380.8,89.58 380.97,89.47L390.73,83.35C390.89,83.25 391.07,83.25 391.23,83.34C391.39,83.43 391.49,83.59 391.49,83.77L391.49,93.41C391.52,93.99 392,94.47 392.58,94.47ZM353.93,94.47L349.33,94.47C348.75,94.47 348.27,93.99 348.27,93.41L348.27,90.59C348.27,90.4 348.11,90.24 347.92,90.24L323.73,90.24C323.39,90.24 323.1,90.38 322.89,90.65L320.36,93.92C320.08,94.28 319.69,94.47 319.24,94.47L312.92,94.47C312.73,94.47 312.56,94.37 312.48,94.19C312.39,94.02 312.41,93.82 312.53,93.67L325.6,76.76C325.81,76.49 326.1,76.35 326.44,76.35L353.93,76.35C354.51,76.35 354.99,76.83 354.99,77.41L354.99,93.41C354.99,93.99 354.52,94.47 353.93,94.47ZM348.27,85.22L348.27,81.25C348.27,81.06 348.11,80.9 347.92,80.9L330.78,80.9C330.55,80.9 330.36,81 330.22,81.17L327.17,85.12C327.1,85.21 327.09,85.32 327.14,85.42C327.19,85.52 327.28,85.58 327.39,85.58L347.92,85.58C348.11,85.57 348.27,85.41 348.27,85.22ZM268.88,94.47L253.71,94.47C253.52,94.47 253.35,94.37 253.27,94.19C253.18,94.02 253.2,93.82 253.32,93.67L266.39,76.76C266.6,76.49 266.89,76.35 267.23,76.35L282.25,76.35C282.47,76.35 282.66,76.47 282.76,76.67C282.86,76.87 282.83,77.09 282.7,77.27L269.72,94.06C269.51,94.33 269.22,94.47 268.88,94.47ZM279.91,94.47L272.73,94.47C272.54,94.47 272.37,94.37 272.29,94.19C272.2,94.02 272.22,93.82 272.34,93.67L285.41,76.76C285.62,76.49 285.91,76.35 286.25,76.35L293.29,76.35C293.51,76.35 293.7,76.47 293.8,76.67C293.9,76.87 293.87,77.09 293.74,77.27L280.76,94.06C280.54,94.33 280.25,94.47 279.91,94.47ZM289.8,94.47L284.25,94.47C284.06,94.47 283.89,94.37 283.81,94.19C283.72,94.02 283.74,93.82 283.86,93.67L296.93,76.76C297.14,76.49 297.43,76.35 297.77,76.35L303.17,76.35C303.39,76.35 303.58,76.47 303.68,76.67C303.78,76.87 303.76,77.09 303.62,77.27L290.64,94.06C290.43,94.33 290.14,94.47 289.8,94.47ZM298.73,94.47L294.86,94.47C294.67,94.47 294.5,94.37 294.42,94.19C294.33,94.02 294.35,93.82 294.47,93.67L307.54,76.76C307.75,76.49 308.04,76.35 308.38,76.35L312.11,76.35C312.33,76.35 312.52,76.47 312.62,76.67C312.72,76.87 312.69,77.09 312.56,77.27L299.58,94.06C299.36,94.33 299.07,94.47 298.73,94.47ZM307.29,94.47L304.44,94.47C304.25,94.47 304.08,94.37 304,94.19C303.91,94.02 303.93,93.82 304.05,93.67L317.12,76.76C317.33,76.49 317.62,76.35 317.96,76.35L320.66,76.35C320.88,76.35 321.07,76.47 321.17,76.67C321.27,76.87 321.24,77.09 321.11,77.27L308.13,94.06C307.92,94.33 307.63,94.47 307.29,94.47Z" style="fill:white;"/>
                <g id="g1394">
                    <path id="path1378" d="M241.22,104.47C240.19,103.83 238.17,103.53 235.05,103.53L221.48,103.53L221.48,121.78L224.37,121.78L224.37,114.78L235.05,114.78C238.18,114.78 240.2,114.48 241.22,113.85C242.27,113.21 242.8,112.02 242.8,110.33L242.8,108C242.81,106.31 242.28,105.12 241.22,104.47ZM239.75,108.69L239.75,109.54C239.75,110.67 239.5,111.41 239.02,111.73C238.5,112.08 237.4,112.26 235.74,112.26L224.38,112.26L224.38,105.97L235.74,105.97C237.4,105.97 238.51,106.15 239.02,106.5C239.5,106.83 239.75,107.57 239.75,108.69Z" style="fill:rgb(0,161,155);fill-rule:nonzero;"/>
                    <path id="polygon1380" d="M251.64,106.02L268.17,106.02L268.17,103.53L248.8,103.53L248.8,121.78L268.17,121.78L268.17,119.29L251.64,119.29L251.64,113.56L267.48,113.56L267.48,111.07L251.64,111.07L251.64,106.02Z" style="fill:rgb(0,161,155);fill-rule:nonzero;"/>
                    <path id="polygon1382" d="M272.35,106.02L281.84,106.02L281.84,121.78L284.73,121.78L284.73,106.02L294.21,106.02L294.21,103.53L272.35,103.53L272.35,106.02Z" style="fill:rgb(0,161,155);fill-rule:nonzero;"/>
                    <path id="path1384" d="M319.71,104.46C318.67,103.83 316.65,103.52 313.52,103.52L299.59,103.52L299.59,121.77L302.48,121.77L302.48,114.81L313.84,114.81C316.25,114.81 317.16,115.12 317.5,115.39C317.98,115.76 318.22,116.49 318.22,117.56L318.22,121.77L321.11,121.77L321.11,117.12C321.11,116.03 320.82,115.15 320.24,114.52C319.88,114.13 319.41,113.83 318.84,113.64C319.58,113.4 320.13,113.09 320.5,112.71C321.04,112.15 321.31,111.28 321.31,110.12L321.31,108C321.32,106.3 320.78,105.11 319.71,104.46ZM318.3,108.69L318.3,109.54C318.3,110.64 318.05,111.38 317.57,111.72C317.05,112.08 315.95,112.26 314.3,112.26L302.49,112.26L302.49,105.97L314.3,105.97C315.95,105.97 317.05,106.15 317.57,106.52C318.05,106.87 318.3,107.6 318.3,108.69Z" style="fill:rgb(0,161,155);fill-rule:nonzero;"/>
                    <path id="path1386" d="M350.1,104.6C349.46,104.13 348.62,103.8 347.58,103.6C346.57,103.41 345.03,103.31 343.01,103.31L336.61,103.31C334.59,103.31 333.05,103.41 332.04,103.6C331.01,103.8 330.16,104.13 329.52,104.6C328.8,105.13 328.28,105.86 327.96,106.78C327.65,107.68 327.5,108.89 327.5,110.39L327.5,115.23C327.5,116.6 327.66,117.73 327.97,118.58C328.29,119.45 328.82,120.16 329.55,120.7C330.2,121.17 331.04,121.51 332.05,121.7C333.04,121.89 334.59,121.98 336.64,121.98L343.01,121.98C345.08,121.98 346.63,121.88 347.62,121.7C348.63,121.51 349.46,121.17 350.1,120.7C350.8,120.19 351.32,119.47 351.64,118.57C351.96,117.69 352.12,116.53 352.12,115.12L352.12,110.18C352.12,108.78 351.96,107.63 351.64,106.74C351.32,105.83 350.8,105.11 350.1,104.6ZM344.14,119.43L335.48,119.43C334.27,119.43 333.34,119.33 332.69,119.14C332.07,118.96 331.59,118.65 331.25,118.23C331,117.93 330.82,117.56 330.72,117.15C330.61,116.71 330.56,115.96 330.56,114.93L330.56,110.27C330.56,109.24 330.61,108.49 330.72,108.05C330.82,107.63 331,107.27 331.25,106.97C331.59,106.55 332.08,106.25 332.69,106.07C333.33,105.88 334.27,105.78 335.48,105.78L344.14,105.78C345.35,105.78 346.28,105.88 346.92,106.07C347.53,106.25 348.02,106.56 348.36,106.97C348.59,107.26 348.76,107.61 348.86,108C348.97,108.42 349.02,109.09 349.02,110L349.02,115.21C349.02,116.11 348.97,116.78 348.86,117.2C348.76,117.6 348.59,117.95 348.36,118.24C348.02,118.66 347.53,118.96 346.92,119.15C346.28,119.33 345.35,119.43 344.14,119.43Z" style="fill:rgb(0,161,155);fill-rule:nonzero;"/>
                    <path id="polygon1388" d="M382.7,103.53L379.82,103.53L379.82,118.92L362.86,103.53L358.76,103.53L358.76,121.78L361.66,121.78L361.66,106.15L378.87,121.78L382.7,121.78L382.7,103.53Z" style="fill:rgb(0,161,155);fill-rule:nonzero;"/>
                    <path id="path1390" d="M398.63,103.53L387.19,121.78L390.51,121.78L392.95,117.87L407.9,117.87L410.41,121.78L413.54,121.78L402.07,103.53L398.63,103.53ZM394.44,115.49L400.38,106.03L406.42,115.49L394.44,115.49Z" style="fill:rgb(0,161,155);fill-rule:nonzero;"/>
                    <path id="path1392" d="M439.25,113.53C438.95,112.84 438.44,112.29 437.73,111.91C437.25,111.64 436.61,111.45 435.82,111.33C435.05,111.22 433.9,111.16 432.39,111.16L425.51,111.16C423.44,111.16 422.08,110.96 421.45,110.56C420.85,110.18 420.56,109.48 420.56,108.42C420.56,107.38 420.86,106.69 421.47,106.32C422.12,105.93 423.43,105.73 425.36,105.73L431.89,105.73C433.78,105.73 435.03,105.92 435.59,106.3C436.12,106.66 436.38,107.38 436.38,108.45L436.38,108.98L439.18,108.98L439.18,108.21C439.18,107.32 439.07,106.57 438.85,105.98C438.63,105.37 438.27,104.87 437.79,104.49C437.22,104.05 436.43,103.74 435.44,103.57C434.48,103.4 432.78,103.32 430.4,103.32L426.05,103.32C422.83,103.32 420.67,103.69 419.44,104.46C418.19,105.24 417.55,106.61 417.55,108.52C417.55,110.39 418.11,111.73 419.21,112.51C420.3,113.28 422.11,113.66 424.74,113.66L432.83,113.66C434.47,113.66 435.56,113.85 436.06,114.23C436.54,114.59 436.78,115.3 436.78,116.33C436.78,117.59 436.43,118.41 435.72,118.84C434.97,119.29 433.31,119.52 430.77,119.52L425.77,119.52C423.66,119.52 422.22,119.31 421.47,118.9C420.76,118.51 420.42,117.82 420.42,116.8C420.42,116.68 420.43,116.45 420.45,116.11L420.5,115.49L417.71,115.49L417.67,115.7C417.66,115.76 417.65,115.84 417.65,115.94C417.62,116.48 417.61,116.86 417.61,117.08C417.61,118.83 418.2,120.11 419.37,120.87C420.52,121.62 422.36,121.99 425.01,121.99L431.51,121.99C434.57,121.99 436.65,121.59 437.85,120.78C439.06,119.95 439.68,118.5 439.68,116.45C439.69,115.19 439.54,114.21 439.25,113.53Z" style="fill:rgb(0,161,155);fill-rule:nonzero;"/>
                </g>
            </g>
            <g id="g1430">
                <path id="path1402" d="M259.25,136.89L259.25,137.88L253.84,137.88L253.84,144.25L252.71,144.25L252.71,130.98L259.65,130.98L259.65,131.97L253.84,131.97L253.84,136.88L259.25,136.88L259.25,136.89Z" style="fill:white;fill-rule:nonzero;"/>
                <path id="path1404" d="M273.25,137.6C273.25,141.64 271.1,144.46 268.06,144.46C264.94,144.46 262.83,141.65 262.83,137.52C262.83,133.58 265.02,130.76 268.04,130.76C271.1,130.76 273.25,133.59 273.25,137.6ZM264.05,137.54C264.05,141.02 265.68,143.45 268.03,143.45C270.36,143.45 272.01,141.02 272.01,137.6C272.01,134.2 270.36,131.77 268.03,131.77C265.73,131.77 264.05,134.2 264.05,137.54Z" style="fill:white;fill-rule:nonzero;"/>
                <path id="path1406" d="M279.43,130.98C281.48,130.98 282.08,131.04 282.95,131.34C284.32,131.78 285.18,133.03 285.18,134.62C285.18,136.37 284.23,137.56 282.32,138.2L285.96,144.25L284.57,144.25L281.01,138.36L278.54,138.36L278.54,144.25L277.41,144.25L277.41,130.98L279.43,130.98ZM279.47,137.36C281.22,137.36 281.66,137.32 282.33,137.08C283.36,136.72 283.94,135.83 283.94,134.59C283.94,133.46 283.42,132.62 282.55,132.26C281.91,132.02 281.38,131.96 279.49,131.96L278.54,131.96L278.54,137.35L279.47,137.35L279.47,137.36Z" style="fill:white;fill-rule:nonzero;"/>
                <path id="path1408" d="M291.5,130.98L295.5,142.98L299.5,130.98L301.33,130.98L301.33,144.25L300.2,144.25L300.2,132.02L296.08,144.25L294.95,144.25L290.81,132.02L290.81,144.25L289.68,144.25L289.68,130.98L291.5,130.98Z" style="fill:white;fill-rule:nonzero;"/>
                <path id="path1410" d="M307.05,130.98L307.05,138.86C307.07,141.25 307.11,141.61 307.55,142.22C308.07,143 309.14,143.45 310.41,143.45C311.84,143.45 312.98,142.89 313.45,141.96C313.75,141.38 313.77,141.05 313.79,138.86L313.79,130.98L314.92,130.98L314.92,138.88C314.92,141.05 314.9,141.31 314.66,141.98C314.1,143.55 312.53,144.47 310.4,144.47C308.49,144.47 307.04,143.73 306.36,142.44C306.02,141.78 305.9,141.13 305.9,139.85L305.9,138.88L305.9,130.98L307.05,130.98Z" style="fill:white;fill-rule:nonzero;"/>
                <path id="path1412" d="M320.67,130.98L320.67,143.25L326.32,143.25L326.32,144.24L319.5,144.24L319.5,130.97L320.67,130.97L320.67,130.98Z" style="fill:white;fill-rule:nonzero;"/>
                <path id="path1414" d="M334.75,130.88L339.35,144.25L338.16,144.25L336.87,140.49L331.78,140.49L330.47,144.25L329.3,144.25L333.9,130.88L334.75,130.88ZM334.31,132.49L332.08,139.49L336.52,139.49L334.31,132.49Z" style="fill:white;fill-rule:nonzero;"/>
                <path id="path1416" d="M358.93,137.6C358.93,141.64 356.78,144.46 353.74,144.46C350.62,144.46 348.51,141.65 348.51,137.52C348.51,133.58 350.7,130.76 353.72,130.76C356.78,130.76 358.93,133.59 358.93,137.6ZM349.74,137.54C349.74,141.02 351.37,143.45 353.72,143.45C356.05,143.45 357.7,141.02 357.7,137.6C357.7,134.2 356.05,131.77 353.72,131.77C351.41,131.77 349.74,134.2 349.74,137.54Z" style="fill:white;fill-rule:nonzero;"/>
                <path id="path1418" d="M364.33,130.98L371.01,142.6L371.01,130.98L372.06,130.98L372.06,144.25L370.75,144.25L364.15,132.67L364.15,144.25L363.08,144.25L363.08,130.98L364.33,130.98Z" style="fill:white;fill-rule:nonzero;"/>
                <path id="path1420" d="M383.38,136.89L383.38,137.88L377.97,137.88L377.97,143.25L383.86,143.25L383.86,144.24L376.84,144.24L376.84,130.97L383.78,130.97L383.78,131.96L377.97,131.96L377.97,136.87L383.38,136.87L383.38,136.89Z" style="fill:white;fill-rule:nonzero;"/>
                <path id="path1422" d="M400.86,130.98L400.86,131.97L397.44,131.97L397.44,144.24L396.31,144.24L396.31,131.97L392.87,131.97L392.87,130.98L400.86,130.98Z" style="fill:white;fill-rule:nonzero;"/>
                <path id="path1424" d="M410.92,136.89L410.92,137.88L405.51,137.88L405.51,143.25L411.4,143.25L411.4,144.24L404.38,144.24L404.38,130.97L411.32,130.97L411.32,131.96L405.51,131.96L405.51,136.87L410.92,136.87L410.92,136.89Z" style="fill:white;fill-rule:nonzero;"/>
                <path id="path1426" d="M419.61,130.88L424.21,144.25L423.02,144.25L421.73,140.49L416.64,140.49L415.33,144.25L414.16,144.25L418.76,130.88L419.61,130.88ZM419.17,132.49L416.94,139.49L421.38,139.49L419.17,132.49Z" style="fill:white;fill-rule:nonzero;"/>
                <path id="path1428" d="M429.55,130.98L433.55,142.98L437.55,130.98L439.38,130.98L439.38,144.25L438.25,144.25L438.25,132.02L434.13,144.25L433,144.25L428.86,132.02L428.86,144.25L427.73,144.25L427.73,130.98L429.55,130.98Z" style="fill:white;fill-rule:nonzero;"/>
            </g>
        </g>
    </g>
    <defs>
        <linearGradient id="_Linear1" x1="0" y1="0" x2="1" y2="0" gradientUnits="userSpaceOnUse" gradientTransform="matrix(48,40.2,-40.2,48,8,11.9)"><stop offset="0" style="stop-color:white;stop-opacity:1"/><stop offset="0.1" style="stop-color:rgb(231,232,230);stop-opacity:1"/><stop offset="0.1" style="stop-color:rgb(205,208,208);stop-opacity:1"/><stop offset="0.2" style="stop-color:rgb(181,187,189);stop-opacity:1"/><stop offset="0.2" style="stop-color:rgb(165,172,175);stop-opacity:1"/><stop offset="0.3" style="stop-color:rgb(155,163,167);stop-opacity:1"/><stop offset="0.3" style="stop-color:rgb(152,160,164);stop-opacity:1"/><stop offset="0.4" style="stop-color:rgb(130,138,143);stop-opacity:1"/><stop offset="0.5" style="stop-color:rgb(102,112,117);stop-opacity:1"/><stop offset="0.6" style="stop-color:rgb(83,92,99);stop-opacity:1"/><stop offset="0.7" style="stop-color:rgb(71,81,88);stop-opacity:1"/><stop offset="0.8" style="stop-color:rgb(67,77,84);stop-opacity:1"/><stop offset="1" style="stop-color:rgb(71,81,87);stop-opacity:1"/></linearGradient>
        <linearGradient id="_Linear2" x1="0" y1="0" x2="1" y2="0" gradientUnits="userSpaceOnUse" gradientTransform="matrix(45,37.8,-37.8,45,9.5,13.1)"><stop offset="0" style="stop-color:rgb(11,31,42);stop-opacity:1"/><stop offset="0.2" style="stop-color:rgb(51,63,71);stop-opacity:1"/><stop offset="0.5" style="stop-color:rgb(119,127,132);stop-opacity:1"/><stop offset="0.5" style="stop-color:rgb(129,137,141);stop-opacity:1"/><stop offset="0.7" style="stop-color:rgb(179,184,184);stop-opacity:1"/><stop offset="0.8" style="stop-color:rgb(210,213,211);stop-opacity:1"/><stop offset="0.8" style="stop-color:rgb(222,224,221);stop-opacity:1"/><stop offset="1" style="stop-color:rgb(251,251,251);stop-opacity:1"/></linearGradient>
        <linearGradient id="_Linear3" x1="0" y1="0" x2="1" y2="0" gradientUnits="userSpaceOnUse" gradientTransform="matrix(-21.9,-60.2,60.2,-21.9,42.9726,62.1071)"><stop offset="0" style="stop-color:rgb(225,227,225);stop-opacity:0.4"/><stop offset="0.1" style="stop-color:rgb(193,197,196);stop-opacity:0.4"/><stop offset="0.3" style="stop-color:rgb(155,161,162);stop-opacity:0.4"/><stop offset="0.5" style="stop-color:rgb(125,132,135);stop-opacity:0.4"/><stop offset="0.7" style="stop-color:rgb(104,112,116);stop-opacity:0"/><stop offset="0.8" style="stop-color:rgb(91,100,105);stop-opacity:0"/><stop offset="1" style="stop-color:rgb(87,96,101);stop-opacity:0"/></linearGradient>
        <linearGradient id="_Linear4" x1="0" y1="0" x2="1" y2="0" gradientUnits="userSpaceOnUse" gradientTransform="matrix(27.6,47.8,-47.8,27.6,18.2,8.1)"><stop offset="0" style="stop-color:rgb(225,227,225);stop-opacity:0.4"/><stop offset="0.1" style="stop-color:rgb(193,197,196);stop-opacity:0.4"/><stop offset="0.3" style="stop-color:rgb(155,161,162);stop-opacity:0.4"/><stop offset="0.5" style="stop-color:rgb(125,132,135);stop-opacity:0.4"/><stop offset="0.7" style="stop-color:rgb(104,112,116);stop-opacity:0"/><stop offset="0.8" style="stop-color:rgb(91,100,105);stop-opacity:0"/><stop offset="1" style="stop-color:rgb(87,96,101);stop-opacity:0"/></linearGradient>
        <linearGradient id="_Linear5" x1="0" y1="0" x2="1" y2="0" gradientUnits="userSpaceOnUse" gradientTransform="matrix(-1.7,2.8,-2.8,-1.7,44.5,39.4)"><stop offset="0" style="stop-color:rgb(39,52,60);stop-opacity:1"/><stop offset="1" style="stop-color:rgb(0,17,30);stop-opacity:0"/></linearGradient>
        <linearGradient id="_Linear6" x1="0" y1="0" x2="1" y2="0" gradientUnits="userSpaceOnUse" gradientTransform="matrix(-2.8,-4.5,4.5,-2.8,39.6,29.1)"><stop offset="0" style="stop-color:rgb(2,19,31);stop-opacity:1"/><stop offset="0.1" style="stop-color:rgb(2,19,31);stop-opacity:1"/><stop offset="0.9" style="stop-color:rgb(2,19,31);stop-opacity:0"/><stop offset="1" style="stop-color:rgb(2,19,31);stop-opacity:0"/></linearGradient>
        <linearGradient id="_Linear7" x1="0" y1="0" x2="1" y2="0" gradientUnits="userSpaceOnUse" gradientTransform="matrix(-4.2,1.2,-1.2,-4.2,32,36.4)"><stop offset="0" style="stop-color:rgb(2,19,31);stop-opacity:0.8"/><stop offset="0.2" style="stop-color:rgb(2,19,31);stop-opacity:0.8"/><stop offset="0.9" style="stop-color:rgb(2,19,31);stop-opacity:0"/><stop offset="1" style="stop-color:rgb(2,19,31);stop-opacity:0"/></linearGradient>
        <linearGradient id="_Linear8" x1="0" y1="0" x2="1" y2="0" gradientUnits="userSpaceOnUse" gradientTransform="matrix(-0.6,-1.5,1.5,-0.6,20.8,41.9)"><stop offset="0" style="stop-color:rgb(2,19,31);stop-opacity:0.8"/><stop offset="0.1" style="stop-color:rgb(2,19,31);stop-opacity:0.8"/><stop offset="1" style="stop-color:rgb(2,19,31);stop-opacity:0"/></linearGradient>
        <linearGradient id="_Linear9" x1="0" y1="0" x2="1" y2="0" gradientUnits="userSpaceOnUse" gradientTransform="matrix(-3.4,0.4,-0.4,-3.4,35.6,17.2)"><stop offset="0" style="stop-color:rgb(2,19,31);stop-opacity:1"/><stop offset="0.3" style="stop-color:rgb(2,19,31);stop-opacity:1"/><stop offset="0.3" style="stop-color:rgb(2,19,31);stop-opacity:1"/><stop offset="0.8" style="stop-color:rgb(2,19,31);stop-opacity:0"/><stop offset="1" style="stop-color:rgb(2,19,31);stop-opacity:0"/></linearGradient>
        <linearGradient id="_Linear10" x1="0" y1="0" x2="1" y2="0" gradientUnits="userSpaceOnUse" gradientTransform="matrix(-2.3,0.3,-0.3,-2.3,35.7,17.1)"><stop offset="0" style="stop-color:rgb(39,52,60);stop-opacity:1"/><stop offset="0.4" style="stop-color:rgb(39,52,60);stop-opacity:1"/><stop offset="1" style="stop-color:rgb(59,71,78);stop-opacity:0"/></linearGradient>
        <linearGradient id="_Linear11" x1="0" y1="0" x2="1" y2="0" gradientUnits="userSpaceOnUse" gradientTransform="matrix(27.9,16.1,-16.1,27.9,-0.4,32.9)"><stop offset="0" style="stop-color:rgb(36,48,58);stop-opacity:0"/><stop offset="0" style="stop-color:rgb(37,50,59);stop-opacity:0"/><stop offset="0.1" style="stop-color:rgb(39,52,60);stop-opacity:1"/><stop offset="1" style="stop-color:rgb(39,52,60);stop-opacity:1"/></linearGradient>
        <linearGradient id="_Linear12" x1="0" y1="0" x2="1" y2="0" gradientUnits="userSpaceOnUse" gradientTransform="matrix(2.93915e-16,-4.8,4.8,2.93915e-16,32,37.4)"><stop offset="0" style="stop-color:rgb(165,171,175);stop-opacity:1"/><stop offset="0.3" style="stop-color:rgb(165,171,175);stop-opacity:1"/><stop offset="1" style="stop-color:rgb(165,171,175);stop-opacity:0"/></linearGradient>
        <linearGradient id="_Linear13" x1="0" y1="0" x2="1" y2="0" gradientUnits="userSpaceOnUse" gradientTransform="matrix(3.73517e-15,61,-61,3.73517e-15,47.7,2.3)"><stop offset="0" style="stop-color:rgb(222,224,221);stop-opacity:1"/><stop offset="0" style="stop-color:rgb(197,201,199);stop-opacity:1"/><stop offset="0" style="stop-color:rgb(158,164,165);stop-opacity:1"/><stop offset="0" style="stop-color:rgb(130,137,140);stop-opacity:1"/><stop offset="0" style="stop-color:rgb(113,121,125);stop-opacity:1"/><stop offset="0" style="stop-color:rgb(107,115,120);stop-opacity:1"/><stop offset="0.2" style="stop-color:rgb(51,63,71);stop-opacity:1"/><stop offset="0.5" style="stop-color:rgb(39,52,60);stop-opacity:1"/><stop offset="0.8" style="stop-color:rgb(51,63,71);stop-opacity:1"/><stop offset="1" style="stop-color:rgb(67,77,84);stop-opacity:1"/></linearGradient>
        <linearGradient id="_Linear14" x1="0" y1="0" x2="1" y2="0" gradientUnits="userSpaceOnUse" gradientTransform="matrix(2e-06,0,0,2e-06,32.1,0.7)"><stop offset="0" style="stop-color:rgb(222,224,221);stop-opacity:1"/><stop offset="0" style="stop-color:rgb(197,201,199);stop-opacity:1"/><stop offset="0" style="stop-color:rgb(158,164,165);stop-opacity:1"/><stop offset="0" style="stop-color:rgb(130,137,140);stop-opacity:1"/><stop offset="0" style="stop-color:rgb(113,121,125);stop-opacity:1"/><stop offset="0" style="stop-color:rgb(107,115,120);stop-opacity:1"/><stop offset="0.2" style="stop-color:rgb(51,63,71);stop-opacity:1"/><stop offset="0.5" style="stop-color:rgb(39,52,60);stop-opacity:1"/><stop offset="0.8" style="stop-color:rgb(51,63,71);stop-opacity:1"/><stop offset="1" style="stop-color:rgb(67,77,84);stop-opacity:1"/></linearGradient>
        <linearGradient id="_Linear15" x1="0" y1="0" x2="1" y2="0" gradientUnits="userSpaceOnUse" gradientTransform="matrix(-13.5,19.8,-19.8,-13.5,57.3,8.1)"><stop offset="0" style="stop-color:rgb(39,52,60);stop-opacity:1"/><stop offset="0.7" style="stop-color:rgb(39,52,60);stop-opacity:1"/><stop offset="0.7" style="stop-color:rgb(43,55,63);stop-opacity:1"/><stop offset="0.7" style="stop-color:rgb(54,66,74);stop-opacity:1"/><stop offset="0.7" style="stop-color:rgb(73,84,91);stop-opacity:1"/><stop offset="0.8" style="stop-color:rgb(100,109,115);stop-opacity:0"/><stop offset="0.8" style="stop-color:rgb(134,141,146);stop-opacity:0"/><stop offset="0.8" style="stop-color:rgb(176,181,184);stop-opacity:0"/><stop offset="0.8" style="stop-color:rgb(225,227,228);stop-opacity:0"/><stop offset="0.8" style="stop-color:white;stop-opacity:0"/><stop offset="1" style="stop-color:white;stop-opacity:0"/></linearGradient>
    </defs>
</svg>
